<?xml version="1.0" encoding="UTF-8"?>
<svg xmlns="http://www.w3.org/2000/svg" viewBox="0 0 24 24" width="24px" height="24px">
    <path fill="#000000" d="M12 2C9.284 2 8.944 2.012 7.877 2.058 6.813 2.104 6.088 2.277 5.449 2.525 4.788 2.781 4.2 3.123 3.615 3.708 3.029 4.295 2.688 4.884 2.432 5.544 2.184 6.183 2.011 6.908 1.965 7.972 1.919 9.039 1.907 9.379 1.907 12.095 1.907 14.811 1.919 15.151 1.965 16.218 2.011 17.282 2.184 18.007 2.432 18.646 2.688 19.307 3.029 19.895 3.615 20.481 4.2 21.067 4.788 21.408 5.449 21.664 6.088 21.912 6.813 22.085 7.877 22.131 8.944 22.177 9.284 22.189 12 22.189 14.716 22.189 15.056 22.177 16.123 22.131 17.187 22.085 17.912 21.912 18.551 21.664 19.212 21.408 19.8 21.067 20.385 20.481 20.971 19.895 21.312 19.307 21.568 18.646 21.816 18.007 21.989 17.282 22.035 16.218 22.081 15.151 22.093 14.811 22.093 12.095 22.093 9.379 22.081 9.039 22.035 7.972 21.989 6.908 21.816 6.183 21.568 5.544 21.312 4.884 20.971 4.295 20.385 3.708 19.8 3.123 19.212 2.781 18.551 2.525 17.912 2.277 17.187 2.104 16.123 2.058 15.056 2.012 14.716 2 12 2M12 4.378C14.632 4.378 14.944 4.389 15.989 4.434 16.95 4.477 17.466 4.644 17.811 4.782 18.276 4.965 18.607 5.184 18.954 5.531 19.301 5.879 19.519 6.21 19.702 6.674 19.84 7.019 20.008 7.535 20.051 8.496 20.097 9.541 20.107 9.853 20.107 12.485 20.107 15.117 20.097 15.429 20.051 16.474 20.008 17.435 19.84 17.951 19.702 18.296 19.519 18.761 19.301 19.091 18.954 19.439 18.607 19.786 18.276 20.005 17.811 20.188 17.466 20.326 16.95 20.493 15.989 20.536 14.944 20.582 14.632 20.592 12 20.592 9.368 20.592 9.056 20.582 8.011 20.536 7.05 20.493 6.534 20.326 6.189 20.188 5.724 20.005 5.393 19.786 5.046 19.439 4.699 19.091 4.481 18.761 4.298 18.296 4.16 17.951 3.992 17.435 3.949 16.474 3.903 15.429 3.893 15.117 3.893 12.485 3.893 9.853 3.903 9.541 3.949 8.496 3.992 7.535 4.16 7.019 4.298 6.674 4.481 6.21 4.699 5.879 5.046 5.531 5.393 5.184 5.724 4.965 6.189 4.782 6.534 4.644 7.05 4.477 8.011 4.434 9.056 4.389 9.368 4.378 12 4.378"/>
    <path fill="#000000" d="M12 15.004C10.34 15.004 9 13.664 9 12.004 9 10.344 10.34 9.004 12 9.004 13.66 9.004 15 10.344 15 12.004 15 13.664 13.66 15.004 12 15.004M12 6.671C9.054 6.671 6.667 9.058 6.667 12.004 6.667 14.95 9.054 17.337 12 17.337 14.946 17.337 17.333 14.95 17.333 12.004 17.333 9.058 14.946 6.671 12 6.671M17.5 6.421C17.5 5.762 16.961 5.223 16.302 5.223 15.643 5.223 15.104 5.762 15.104 6.421 15.104 7.08 15.643 7.619 16.302 7.619 16.961 7.619 17.5 7.08 17.5 6.421"/>
</svg>