<?xml version="1.0" encoding="UTF-8"?>
<svg width="24" height="24" viewBox="0 0 24 24" fill="none" xmlns="http://www.w3.org/2000/svg">
  <path d="M20 3H4C3.447 3 3 3.448 3 4V20C3 20.552 3.447 21 4 21H20C20.553 21 21 20.552 21 20V4C21 3.448 20.553 3 20 3ZM8.339 18.337H5.667V9.747H8.339V18.337ZM7.003 8.574C6.147 8.574 5.455 7.88 5.455 7.026C5.455 6.172 6.147 5.478 7.003 5.478C7.857 5.478 8.551 6.172 8.551 7.026C8.551 7.88 7.857 8.574 7.003 8.574ZM18.338 18.337H15.669V14.16C15.669 13.164 15.65 11.883 14.281 11.883C12.891 11.883 12.677 12.968 12.677 14.089V18.337H10.007V9.747H12.554V10.922H12.596C12.965 10.247 13.837 9.533 15.134 9.533C17.838 9.533 18.337 11.311 18.337 13.624V18.337H18.338Z" fill="white"/>
</svg>